# Blender v2.80 (sub 75) OBJ File: ''
# www.blender.org
v 3.224682 3.378787 -0.440340
v 3.224682 3.670219 -0.451725
v 3.208519 3.381456 0.040823
v 3.216946 3.667550 0.052522
v 1.836858 3.305270 -0.562481
v 1.836858 3.730083 -0.562481
v 1.831730 3.308046 0.036065
v 1.834595 3.727308 0.028283
v 3.247966 3.524503 -0.478350
v 3.243785 3.524503 0.073212
v 1.839229 3.517677 0.094896
v 1.839229 3.517677 -0.656247
v 2.727734 3.342449 0.076500
v 2.763666 3.749554 0.111738
v 2.755738 3.354649 -0.516541
v 2.763666 3.755561 -0.510967
v 2.772322 3.534786 -0.612416
v 2.759681 3.534786 0.173893
v 2.169571 3.666075 -0.030463
v 2.168434 3.359575 -0.441943
v 2.171698 3.513257 0.029738
v 2.170346 3.345572 -0.028048
v 2.169571 3.672082 -0.424741
v 2.173765 3.513257 -0.515361
v 3.247448 3.361333 -0.256297
v 3.253768 3.687673 -0.246552
v 1.838626 3.232882 -0.330955
v 1.841491 3.802472 -0.303937
v 1.980044 3.549547 -0.124768
v 3.330801 3.524503 -0.250055
v 2.767609 3.831726 -0.247798
v 2.732376 3.276899 -0.309551
v 2.172835 3.730630 -0.264366
v 2.172957 3.285887 -0.311618
v 2.609261 3.047321 -0.123378
v 2.799962 3.044936 -0.123378
v 2.799962 3.049276 -0.256416
v 2.609261 3.051661 -0.256416
v 2.465521 3.175515 -0.034682
v 2.728305 3.164658 -0.034682
v 2.465521 3.164760 -0.271224
v 2.728305 3.153902 -0.271224
v 1.797333 3.545127 0.033804
v 1.794540 3.394446 -0.013322
v 1.800515 3.332096 -0.323630
v 1.800515 3.758157 -0.323630
v 1.797722 3.698940 -0.519398
v 1.797333 3.545127 -0.604704
v 1.797722 3.391314 -0.519398
v 1.794540 3.695808 -0.013322
v 1.945007 3.421093 -0.117644
v 1.983410 3.423010 -0.298343
v 1.983410 3.676084 -0.298343
v 1.968790 3.679306 -0.447127
v 1.983096 3.549547 -0.442000
v 1.968790 3.419788 -0.447127
v 1.945007 3.678001 -0.117644
v 2.013646 3.549547 -0.299537
v 2.994264 3.337159 0.069969
v 3.020808 3.712550 -0.495143
v 3.028672 3.524503 -0.584958
v 3.017907 3.706881 0.095275
v 3.016347 3.331490 -0.491475
v 3.022352 3.524503 0.147580
v 3.006070 3.261137 -0.282751
v 3.029714 3.782903 -0.250808
v 3.246483 3.681935 -0.067473
v 1.835178 3.245440 -0.123681
v 3.319050 3.524503 -0.066484
v 3.240163 3.367071 -0.076733
v 1.838043 3.789914 -0.114062
v 2.764708 3.819840 -0.043025
v 2.763465 3.284914 -0.109855
v 2.171203 3.722411 -0.091567
v 2.161176 3.296834 -0.124043
v 2.810815 3.043028 -0.191298
v 2.606949 3.044817 -0.191298
v 2.761312 3.157491 -0.152953
v 2.432515 3.171926 -0.152953
v 1.797528 3.335037 -0.135060
v 1.797528 3.755217 -0.135060
v 1.977382 3.427255 -0.207758
v 1.977382 3.671839 -0.207758
v 2.058415 3.549547 -0.161831
v 3.023811 3.774696 -0.050676
v 2.993846 3.269345 -0.092829
v 2.693267 3.248131 0.012270
v 2.693267 3.220124 -0.273996
v 2.405662 3.255348 0.012270
v 2.405662 3.227342 -0.273996
v 2.370023 3.242240 -0.130863
v 2.728907 3.233233 -0.130863
v 2.541844 3.100530 -0.083488
v 2.541844 3.100474 -0.265196
v 2.772536 3.093312 -0.083488
v 2.772536 3.093256 -0.265196
v 2.801123 3.092390 -0.174342
v 2.513257 3.101396 -0.174342
v 2.522181 3.361448 0.110106
v 2.539519 3.745674 -0.503564
v 2.542340 3.529645 -0.611989
v 2.539519 3.739667 0.091611
v 2.535916 3.366816 -0.516932
v 2.534986 3.529645 0.163534
v 2.522181 3.281942 -0.358856
v 2.538589 3.817374 -0.249095
v 2.708882 3.041137 -0.122011
v 2.708882 3.046708 -0.260585
v 2.596913 3.158397 -0.300847
v 2.596913 3.171021 -0.005058
v 2.721693 3.030794 -0.195500
v 2.538589 3.805150 -0.055704
v 2.549464 3.255210 0.047743
v 2.549464 3.220263 -0.309469
v 2.657190 3.096858 -0.287712
v 2.657190 3.096928 -0.060971
vn 0.9731 -0.0219 0.2292
vn 0.5653 0.5648 0.6012
vn 0.6511 -0.0437 0.7577
vn -0.0426 0.5746 0.8173
vn -0.3378 -0.0008 0.9412
vn -0.0947 0.0167 0.9954
vn -0.2324 0.7213 -0.6525
vn -0.9904 -0.1293 -0.0493
vn -0.2535 0.9613 -0.1079
vn 0.2305 -0.0190 -0.9729
vn 0.6089 0.5964 -0.5230
vn 0.7347 -0.0236 -0.6780
vn -0.4491 -0.8839 -0.1300
vn 0.0936 -0.7177 -0.6900
vn -0.0039 -0.9668 -0.2555
vn 0.2704 0.9575 -0.0997
vn 0.2174 0.7358 -0.6413
vn 0.6176 -0.6064 -0.5008
vn 0.1556 -0.7517 -0.6409
vn -0.3116 0.6232 0.7172
vn -0.9992 0.0383 -0.0089
vn -0.0782 -0.6673 0.7406
vn -0.4192 -0.6073 0.6749
vn 0.5271 -0.6168 0.5845
vn 0.6682 -0.7277 0.1546
vn 0.1102 -0.7280 0.6766
vn 0.0122 -0.0710 0.9974
vn 0.1522 -0.6290 0.7623
vn -0.1319 -0.0273 -0.9909
vn 0.0054 -0.7354 -0.6776
vn -0.0933 -0.6981 -0.7099
vn -0.1457 0.9834 -0.1084
vn 0.0562 0.7653 -0.6411
vn -0.1589 0.7599 -0.6303
vn 0.1864 -0.9218 -0.3397
vn 0.1568 -0.9814 -0.1105
vn 0.0552 -0.0193 -0.9983
vn 0.2127 0.6249 0.7512
vn 0.1869 -0.0627 0.9803
vn 0.0934 0.0107 -0.9955
vn -0.2300 -0.0382 -0.9724
vn 0.0490 0.7914 -0.6093
vn -0.3527 -0.6934 -0.6283
vn -0.1081 -0.3905 0.9142
vn -0.0408 -0.8047 -0.5923
vn -0.2108 0.6544 0.7261
vn -0.1686 -0.0047 0.9857
vn 0.0145 -0.6438 0.7650
vn -0.2557 -0.9066 0.3356
vn 0.0043 -0.8974 0.4411
vn -0.2772 0.9331 0.2289
vn -0.0024 0.9889 -0.1484
vn 0.4050 -0.8955 0.1843
vn 0.1202 -0.9716 0.2037
vn -0.1690 0.9549 0.2440
vn 0.0581 0.9922 -0.1099
vn 0.9958 -0.0123 -0.0904
vn 0.6808 -0.7310 -0.0459
vn -0.9986 -0.0468 -0.0259
vn 0.6950 0.7038 0.1470
vn 0.2639 0.9392 0.2196
vn -0.0273 -0.9645 0.2626
vn -0.9656 0.2485 -0.0769
vn -0.4667 -0.8667 0.1762
vn -0.3201 -0.9463 -0.0443
vn 0.0271 -0.7571 -0.6527
vn -0.0093 -0.9987 -0.0497
vn -0.4462 -0.6615 -0.6027
vn -0.6019 -0.7985 -0.0060
vn 0.9210 0.3894 0.0082
vn 0.6847 -0.5549 0.4725
vn 0.8260 -0.5623 -0.0385
vn 0.5875 0.2404 -0.7727
vn 0.0401 -0.2700 -0.9620
vn 0.6269 -0.2695 -0.7309
vn 0.0044 -0.1668 -0.9860
vn -0.0340 -0.4361 -0.8992
vn 0.9916 -0.1246 0.0341
vn 0.6874 -0.1152 0.7170
vn 0.8900 0.4560 -0.0018
vn -0.3647 -0.8146 -0.4510
vn -0.6995 -0.7139 0.0313
vn -0.5036 -0.8549 0.1239
vn -0.0396 -0.5445 0.8378
vn -0.4688 -0.7163 0.5169
vn -0.0070 -0.5653 0.8248
vn -0.9467 0.3220 0.0090
vn -0.7308 0.5358 0.4228
vn -0.9784 0.1721 0.1142
vn -0.7021 0.5405 -0.4635
vn -0.9920 0.1029 -0.0726
vn -0.6919 -0.5113 0.5097
vn -0.7855 -0.6187 0.0080
vn -0.6873 -0.5600 -0.4625
vn -0.6627 -0.0005 -0.7489
vn -0.9930 0.0323 -0.1138
vn -0.9929 0.0623 0.1008
vn -0.8662 -0.0393 0.4981
vn -0.9826 0.0000 0.1858
vn -0.7972 0.6037 0.0084
vn -0.7460 0.6514 -0.1382
vn -0.7336 -0.6657 -0.1364
vn -0.9100 0.0000 -0.4146
vn 0.0487 0.9693 0.2408
vn 0.0289 0.6582 0.7523
vn -0.9983 0.0535 -0.0221
vn -0.3968 -0.6633 0.6345
vn 0.6001 0.3094 -0.7376
vn 0.6763 -0.4025 -0.6169
vn -0.4069 -0.7824 0.4715
vn -0.0116 0.9254 0.3789
vn 0.6966 0.7157 -0.0502
vn 0.5529 -0.4754 0.6843
vn 0.6771 -0.1562 0.7191
vn -0.5254 -0.5848 -0.6180
vn -0.2804 -0.8149 -0.5072
s 1
f 69//1 4//2 10//3
f 19//4 11//5 21//6
f 6//7 46//8 28//9
f 61//10 2//11 9//12
f 27//13 20//14 34//15
f 66//16 2//11 60//17
f 61//10 1//18 63//19
f 8//20 43//21 11//5
f 22//22 11//5 7//23
f 69//1 3//24 70//25
f 59//26 18//27 13//28
f 101//29 15//30 103//31
f 106//32 16//33 100//34
f 32//35 63//19 65//36
f 101//29 16//33 17//37
f 62//38 18//27 64//39
f 6//7 24//40 12//41
f 28//9 23//42 6//7
f 5//43 24//40 20//14
f 99//44 21//6 22//22
f 105//45 20//14 103//31
f 102//46 21//6 104//47
f 116//48 35//49 107//50
f 71//51 33//52 28//9
f 73//53 65//36 86//54
f 112//55 31//56 106//32
f 1//18 30//57 25//58
f 28//9 81//59 71//51
f 67//60 66//16 85//61
f 75//62 27//13 34//15
f 7//23 80//63 68//64
f 2//11 30//57 9//12
f 77//65 108//66 111//67
f 94//68 77//65 98//69
f 97//70 36//71 76//72
f 96//73 108//66 115//74
f 88//75 109//76 114//77
f 92//78 40//79 78//80
f 90//81 79//82 91//83
f 113//84 39//85 110//86
f 45//87 56//88 49//89
f 43//21 51//90 44//91
f 46//8 54//92 53//93
f 43//21 57//94 29//95
f 11//5 44//91 7//23
f 6//7 48//96 47//97
f 5//43 45//87 49//89
f 12//41 49//89 48//96
f 53//93 55//98 58//99
f 52//100 55//98 56//88
f 82//101 58//99 52//100
f 83//102 58//99 84//103
f 47//97 55//98 54//92
f 48//96 56//88 55//98
f 80//63 51//90 82//101
f 46//8 83//102 81//59
f 85//61 31//56 72//104
f 86//54 25//58 70//25
f 4//2 64//39 10//3
f 65//36 1//18 25//58
f 3//24 64//39 59//26
f 15//30 61//10 63//19
f 66//16 16//33 31//56
f 17//37 60//17 61//10
f 3//24 86//54 70//25
f 14//105 85//61 72//104
f 81//59 57//94 50//106
f 45//87 82//101 52//100
f 29//95 83//102 84//103
f 29//95 82//101 51//90
f 91//83 39//85 89//107
f 88//75 78//80 42//108
f 97//70 37//109 96//73
f 98//69 35//49 93//110
f 107//50 77//65 111//67
f 68//64 45//87 27//13
f 7//23 75//62 22//22
f 4//2 85//61 62//38
f 71//51 50//106 8//20
f 102//46 72//104 112//55
f 59//26 73//53 86//54
f 8//20 74//111 71//51
f 30//57 70//25 25//58
f 26//112 69//1 30//57
f 32//35 92//78 88//75
f 22//22 91//83 89//107
f 99//44 89//107 113//84
f 34//15 91//83 75//62
f 73//53 87//113 92//78
f 32//35 114//77 105//45
f 79//82 93//110 39//85
f 78//80 96//73 42//108
f 42//108 115//74 109//76
f 78//80 95//114 97//70
f 41//115 98//69 79//82
f 110//86 93//110 116//48
f 40//79 116//48 95//114
f 109//76 94//68 41//115
f 105//45 90//81 34//15
f 13//28 113//84 87//113
f 19//4 112//55 74//111
f 36//71 111//67 76//72
f 87//113 110//86 40//79
f 114//77 41//115 90//81
f 115//74 38//116 94//68
f 111//67 37//109 76//72
f 74//111 106//32 33//52
f 95//114 107//50 36//71
f 18//27 102//46 104//47
f 105//45 15//30 32//35
f 13//28 104//47 99//44
f 24//40 100//34 101//29
f 106//32 23//42 33//52
f 24//40 103//31 20//14
f 69//1 67//60 4//2
f 19//4 8//20 11//5
f 6//7 47//97 46//8
f 61//10 60//17 2//11
f 27//13 5//43 20//14
f 66//16 26//112 2//11
f 61//10 9//12 1//18
f 8//20 50//106 43//21
f 22//22 21//6 11//5
f 69//1 10//3 3//24
f 59//26 64//39 18//27
f 101//29 17//37 15//30
f 106//32 31//56 16//33
f 32//35 15//30 63//19
f 101//29 100//34 16//33
f 62//38 14//105 18//27
f 6//7 23//42 24//40
f 28//9 33//52 23//42
f 5//43 12//41 24//40
f 99//44 104//47 21//6
f 105//45 34//15 20//14
f 102//46 19//4 21//6
f 116//48 93//110 35//49
f 71//51 74//111 33//52
f 73//53 32//35 65//36
f 112//55 72//104 31//56
f 1//18 9//12 30//57
f 28//9 46//8 81//59
f 67//60 26//112 66//16
f 75//62 68//64 27//13
f 7//23 44//91 80//63
f 2//11 26//112 30//57
f 77//65 38//116 108//66
f 94//68 38//116 77//65
f 97//70 95//114 36//71
f 96//73 37//109 108//66
f 88//75 42//108 109//76
f 92//78 87//113 40//79
f 90//81 41//115 79//82
f 113//84 89//107 39//85
f 45//87 52//100 56//88
f 43//21 29//95 51//90
f 46//8 47//97 54//92
f 43//21 50//106 57//94
f 11//5 43//21 44//91
f 6//7 12//41 48//96
f 5//43 27//13 45//87
f 12//41 5//43 49//89
f 53//93 54//92 55//98
f 52//100 58//99 55//98
f 82//101 84//103 58//99
f 83//102 53//93 58//99
f 47//97 48//96 55//98
f 48//96 49//89 56//88
f 80//63 44//91 51//90
f 46//8 53//93 83//102
f 85//61 66//16 31//56
f 86//54 65//36 25//58
f 4//2 62//38 64//39
f 65//36 63//19 1//18
f 3//24 10//3 64//39
f 15//30 17//37 61//10
f 66//16 60//17 16//33
f 17//37 16//33 60//17
f 3//24 59//26 86//54
f 14//105 62//38 85//61
f 81//59 83//102 57//94
f 45//87 80//63 82//101
f 29//95 57//94 83//102
f 29//95 84//103 82//101
f 91//83 79//82 39//85
f 88//75 92//78 78//80
f 97//70 76//72 37//109
f 98//69 77//65 35//49
f 107//50 35//49 77//65
f 68//64 80//63 45//87
f 7//23 68//64 75//62
f 4//2 67//60 85//61
f 71//51 81//59 50//106
f 102//46 14//105 72//104
f 59//26 13//28 73//53
f 8//20 19//4 74//111
f 30//57 69//1 70//25
f 26//112 67//60 69//1
f 32//35 73//53 92//78
f 22//22 75//62 91//83
f 99//44 22//22 89//107
f 34//15 90//81 91//83
f 73//53 13//28 87//113
f 32//35 88//75 114//77
f 79//82 98//69 93//110
f 78//80 97//70 96//73
f 42//108 96//73 115//74
f 78//80 40//79 95//114
f 41//115 94//68 98//69
f 110//86 39//85 93//110
f 40//79 110//86 116//48
f 109//76 115//74 94//68
f 105//45 114//77 90//81
f 13//28 99//44 113//84
f 19//4 102//46 112//55
f 36//71 107//50 111//67
f 87//113 113//84 110//86
f 114//77 109//76 41//115
f 115//74 108//66 38//116
f 111//67 108//66 37//109
f 74//111 112//55 106//32
f 95//114 116//48 107//50
f 18//27 14//105 102//46
f 105//45 103//31 15//30
f 13//28 18//27 104//47
f 24//40 23//42 100//34
f 106//32 100//34 23//42
f 24//40 101//29 103//31
